# xmcd
#
# Track frame offsets: 
#        150
#        23830
#        43085
#        82307
#        105756
#        127984
#        155065
#        176756
#        197217
#        212944
#        230824
#
# Disc length: 3408 seconds
#
# Revision: 0
# Processed by: cddbd v1.5.2PL0 Copyright (c) Steve Scherf et al.
# Submitted via: ExactAudioCopy v1.0b4
#
DISCID=9b0d4e0b
DTITLE=Downchild Blues Band - Live At The Palais Royale
DYEAR=2007
DGENRE=Blues, Modern Blues, Electric Blues
TTITLE0=It's Been So Long
TTITLE1=Going Dancing
TTITLE2=Wednesday Night Blues
TTITLE3=(I've Got Everything I Need) Almost
TTITLE4=I've Been A Fool
TTITLE5=It's A Matter Of Time
TTITLE6=When I Say Jump
TTITLE7=Mr. Confused
TTITLE8=What You Gonna Do
TTITLE9=Dew Drop Inn
TTITLE10=Soaring
EXTD=
EXTT0=
EXTT1=
EXTT2=
EXTT3=
EXTT4=
EXTT5=
EXTT6=
EXTT7=
EXTT8=
EXTT9=
EXTT10=
PLAYORDER=
